<svg width="149" height="36" viewBox="0 0 149 36" fill="none" xmlns="http://www.w3.org/2000/svg">
<path d="M32.352 0.607998L18.336 35H14.16L0.144 0.607998H3.864C4.28 0.607998 4.616 0.711998 4.872 0.919998C5.128 1.128 5.32 1.392 5.448 1.712L15.144 25.976C15.352 26.52 15.552 27.112 15.744 27.752C15.952 28.392 16.136 29.064 16.296 29.768C16.456 29.064 16.624 28.392 16.8 27.752C16.976 27.112 17.168 26.52 17.376 25.976L27.048 1.712C27.144 1.44 27.328 1.192 27.6 0.967998C27.888 0.727998 28.232 0.607998 28.632 0.607998H32.352ZM60.0829 27.896C60.3389 27.896 60.5629 28 60.7549 28.208L62.6029 30.2C61.1949 31.832 59.4829 33.104 57.4669 34.016C55.4669 34.928 53.0429 35.384 50.1949 35.384C47.7309 35.384 45.4909 34.96 43.4749 34.112C41.4589 33.248 39.7389 32.048 38.3149 30.512C36.8909 28.96 35.7869 27.104 35.0029 24.944C34.2189 22.784 33.8269 20.408 33.8269 17.816C33.8269 15.224 34.2349 12.848 35.0509 10.688C35.8669 8.528 37.0109 6.672 38.4829 5.12C39.9709 3.568 41.7469 2.368 43.8109 1.52C45.8749 0.655997 48.1549 0.223997 50.6509 0.223997C53.0989 0.223997 55.2589 0.615997 57.1309 1.4C59.0029 2.184 60.6509 3.248 62.0749 4.592L60.5389 6.728C60.4429 6.888 60.3149 7.024 60.1549 7.136C60.0109 7.232 59.8109 7.28 59.5549 7.28C59.2669 7.28 58.9149 7.128 58.4989 6.824C58.0829 6.504 57.5389 6.152 56.8669 5.768C56.1949 5.384 55.3549 5.04 54.3469 4.736C53.3389 4.416 52.0989 4.256 50.6269 4.256C48.8509 4.256 47.2269 4.568 45.7549 5.192C44.2829 5.8 43.0109 6.688 41.9389 7.856C40.8829 9.024 40.0589 10.448 39.4669 12.128C38.8749 13.808 38.5789 15.704 38.5789 17.816C38.5789 19.96 38.8829 21.872 39.4909 23.552C40.1149 25.232 40.9549 26.656 42.0109 27.824C43.0829 28.976 44.3389 29.856 45.7789 30.464C47.2349 31.072 48.8029 31.376 50.4829 31.376C51.5069 31.376 52.4269 31.32 53.2429 31.208C54.0749 31.08 54.8349 30.888 55.5229 30.632C56.2269 30.376 56.8749 30.056 57.4669 29.672C58.0749 29.272 58.6749 28.8 59.2669 28.256C59.5389 28.016 59.8109 27.896 60.0829 27.896Z" fill="#EC5242"/>
<path d="M82.784 1.536L78.112 13H76.72L72.048 1.536H73.288C73.4267 1.536 73.5387 1.57067 73.624 1.64C73.7093 1.70933 73.7733 1.79733 73.816 1.904L77.048 9.992C77.1173 10.1733 77.184 10.3707 77.248 10.584C77.3173 10.7973 77.3787 11.0213 77.432 11.256C77.4853 11.0213 77.5413 10.7973 77.6 10.584C77.6587 10.3707 77.7227 10.1733 77.792 9.992L81.016 1.904C81.048 1.81333 81.1093 1.73067 81.2 1.656C81.296 1.576 81.4107 1.536 81.544 1.536H82.784ZM85.4601 4.896V13H84.0361V4.896H85.4601ZM85.7641 2.352C85.7641 2.49067 85.7348 2.62133 85.6761 2.744C85.6228 2.86133 85.5481 2.968 85.4521 3.064C85.3615 3.15467 85.2521 3.22667 85.1241 3.28C85.0015 3.33333 84.8708 3.36 84.7321 3.36C84.5935 3.36 84.4628 3.33333 84.3401 3.28C84.2228 3.22667 84.1188 3.15467 84.0281 3.064C83.9375 2.968 83.8655 2.86133 83.8121 2.744C83.7588 2.62133 83.7321 2.49067 83.7321 2.352C83.7321 2.21333 83.7588 2.08267 83.8121 1.96C83.8655 1.832 83.9375 1.72267 84.0281 1.632C84.1188 1.536 84.2228 1.46133 84.3401 1.408C84.4628 1.35467 84.5935 1.328 84.7321 1.328C84.8708 1.328 85.0015 1.35467 85.1241 1.408C85.2521 1.46133 85.3615 1.536 85.4521 1.632C85.5481 1.72267 85.6228 1.832 85.6761 1.96C85.7348 2.08267 85.7641 2.21333 85.7641 2.352ZM89.2719 1.216V13H87.8479V1.216H89.2719ZM93.0531 1.216V13H91.6291V1.216H93.0531ZM99.7544 9.352C99.0984 9.37333 98.5384 9.42667 98.0744 9.512C97.6157 9.592 97.2397 9.69867 96.9464 9.832C96.6584 9.96533 96.4477 10.1227 96.3144 10.304C96.1864 10.4853 96.1224 10.688 96.1224 10.912C96.1224 11.1253 96.157 11.3093 96.2264 11.464C96.2957 11.6187 96.389 11.7467 96.5064 11.848C96.629 11.944 96.7704 12.016 96.9304 12.064C97.0957 12.1067 97.2717 12.128 97.4584 12.128C97.709 12.128 97.9384 12.104 98.1464 12.056C98.3544 12.0027 98.549 11.928 98.7304 11.832C98.917 11.736 99.093 11.6213 99.2584 11.488C99.429 11.3547 99.5944 11.2027 99.7544 11.032V9.352ZM95.1544 6.04C95.6024 5.608 96.085 5.28533 96.6024 5.072C97.1197 4.85867 97.693 4.752 98.3224 4.752C98.7757 4.752 99.1784 4.82667 99.5304 4.976C99.8824 5.12533 100.178 5.33333 100.418 5.6C100.658 5.86667 100.84 6.18933 100.962 6.568C101.085 6.94667 101.146 7.36267 101.146 7.816V13H100.514C100.376 13 100.269 12.9787 100.194 12.936C100.12 12.888 100.061 12.7973 100.018 12.664L99.8584 11.896C99.645 12.0933 99.437 12.2693 99.2344 12.424C99.0317 12.5733 98.8184 12.7013 98.5944 12.808C98.3704 12.9093 98.1304 12.9867 97.8744 13.04C97.6237 13.0987 97.3437 13.128 97.0344 13.128C96.7197 13.128 96.4237 13.0853 96.1464 13C95.869 12.9093 95.6264 12.776 95.4184 12.6C95.2157 12.424 95.053 12.2027 94.9304 11.936C94.813 11.664 94.7544 11.344 94.7544 10.976C94.7544 10.656 94.8424 10.3493 95.0184 10.056C95.1944 9.75733 95.4797 9.49333 95.8744 9.264C96.269 9.03467 96.7837 8.848 97.4184 8.704C98.053 8.55467 98.8317 8.46933 99.7544 8.448V7.816C99.7544 7.18667 99.6184 6.712 99.3464 6.392C99.0744 6.06667 98.677 5.904 98.1544 5.904C97.8024 5.904 97.5064 5.94933 97.2664 6.04C97.0317 6.12533 96.8264 6.224 96.6504 6.336C96.4797 6.44267 96.3304 6.54133 96.2024 6.632C96.0797 6.71733 95.957 6.76 95.8344 6.76C95.7384 6.76 95.6557 6.736 95.5864 6.688C95.517 6.63467 95.4584 6.57067 95.4104 6.496L95.1544 6.04ZM104.82 4.896V13H103.396V4.896H104.82ZM105.124 2.352C105.124 2.49067 105.094 2.62133 105.036 2.744C104.982 2.86133 104.908 2.968 104.812 3.064C104.721 3.15467 104.612 3.22667 104.484 3.28C104.361 3.33333 104.23 3.36 104.092 3.36C103.953 3.36 103.822 3.33333 103.7 3.28C103.582 3.22667 103.478 3.15467 103.388 3.064C103.297 2.968 103.225 2.86133 103.172 2.744C103.118 2.62133 103.092 2.49067 103.092 2.352C103.092 2.21333 103.118 2.08267 103.172 1.96C103.225 1.832 103.297 1.72267 103.388 1.632C103.478 1.536 103.582 1.46133 103.7 1.408C103.822 1.35467 103.953 1.328 104.092 1.328C104.23 1.328 104.361 1.35467 104.484 1.408C104.612 1.46133 104.721 1.536 104.812 1.632C104.908 1.72267 104.982 1.832 105.036 1.96C105.094 2.08267 105.124 2.21333 105.124 2.352ZM108.503 6.072C108.679 5.87467 108.866 5.696 109.063 5.536C109.261 5.376 109.469 5.24 109.687 5.128C109.911 5.01067 110.146 4.92267 110.391 4.864C110.642 4.8 110.911 4.768 111.199 4.768C111.642 4.768 112.031 4.84267 112.367 4.992C112.709 5.136 112.991 5.344 113.215 5.616C113.445 5.88267 113.618 6.20533 113.735 6.584C113.853 6.96267 113.911 7.38133 113.911 7.84V13H112.479V7.84C112.479 7.22667 112.338 6.752 112.055 6.416C111.778 6.07467 111.354 5.904 110.783 5.904C110.362 5.904 109.967 6.00533 109.599 6.208C109.237 6.41067 108.901 6.68533 108.591 7.032V13H107.159V4.896H108.015C108.218 4.896 108.343 4.99467 108.391 5.192L108.503 6.072ZM115.953 7.6H119.905V8.808H115.953V7.6ZM130.403 10.632C130.488 10.632 130.563 10.6667 130.627 10.736L131.243 11.4C130.773 11.944 130.203 12.368 129.531 12.672C128.864 12.976 128.056 13.128 127.107 13.128C126.285 13.128 125.539 12.9867 124.867 12.704C124.195 12.416 123.621 12.016 123.147 11.504C122.672 10.9867 122.304 10.368 122.043 9.648C121.781 8.928 121.651 8.136 121.651 7.272C121.651 6.408 121.787 5.616 122.059 4.896C122.331 4.176 122.712 3.55733 123.203 3.04C123.699 2.52267 124.291 2.12267 124.979 1.84C125.667 1.552 126.427 1.408 127.259 1.408C128.075 1.408 128.795 1.53867 129.419 1.8C130.043 2.06133 130.592 2.416 131.067 2.864L130.555 3.576C130.523 3.62933 130.48 3.67467 130.427 3.712C130.379 3.744 130.312 3.76 130.227 3.76C130.131 3.76 130.013 3.70933 129.875 3.608C129.736 3.50133 129.555 3.384 129.331 3.256C129.107 3.128 128.827 3.01333 128.491 2.912C128.155 2.80533 127.741 2.752 127.251 2.752C126.659 2.752 126.117 2.856 125.627 3.064C125.136 3.26667 124.712 3.56267 124.355 3.952C124.003 4.34133 123.728 4.816 123.531 5.376C123.333 5.936 123.235 6.568 123.235 7.272C123.235 7.98667 123.336 8.624 123.539 9.184C123.747 9.744 124.027 10.2187 124.379 10.608C124.736 10.992 125.155 11.2853 125.635 11.488C126.12 11.6907 126.643 11.792 127.203 11.792C127.544 11.792 127.851 11.7733 128.123 11.736C128.4 11.6933 128.653 11.6293 128.883 11.544C129.117 11.4587 129.333 11.352 129.531 11.224C129.733 11.0907 129.933 10.9333 130.131 10.752C130.221 10.672 130.312 10.632 130.403 10.632ZM135.966 4.768C136.558 4.768 137.091 4.86667 137.566 5.064C138.041 5.26133 138.446 5.54133 138.782 5.904C139.118 6.26667 139.374 6.70667 139.55 7.224C139.731 7.736 139.822 8.30933 139.822 8.944C139.822 9.584 139.731 10.16 139.55 10.672C139.374 11.184 139.118 11.6213 138.782 11.984C138.446 12.3467 138.041 12.6267 137.566 12.824C137.091 13.016 136.558 13.112 135.966 13.112C135.369 13.112 134.83 13.016 134.35 12.824C133.875 12.6267 133.47 12.3467 133.134 11.984C132.798 11.6213 132.539 11.184 132.358 10.672C132.182 10.16 132.094 9.584 132.094 8.944C132.094 8.30933 132.182 7.736 132.358 7.224C132.539 6.70667 132.798 6.26667 133.134 5.904C133.47 5.54133 133.875 5.26133 134.35 5.064C134.83 4.86667 135.369 4.768 135.966 4.768ZM135.966 12C136.766 12 137.363 11.7333 137.758 11.2C138.153 10.6613 138.35 9.912 138.35 8.952C138.35 7.98667 138.153 7.23467 137.758 6.696C137.363 6.15733 136.766 5.888 135.966 5.888C135.561 5.888 135.206 5.95733 134.902 6.096C134.603 6.23467 134.353 6.43467 134.15 6.696C133.953 6.95733 133.803 7.28 133.702 7.664C133.606 8.04267 133.558 8.472 133.558 8.952C133.558 9.912 133.755 10.6613 134.15 11.2C134.55 11.7333 135.155 12 135.966 12ZM142.972 6.072C143.148 5.87467 143.335 5.696 143.532 5.536C143.729 5.376 143.937 5.24 144.156 5.128C144.38 5.01067 144.615 4.92267 144.86 4.864C145.111 4.8 145.38 4.768 145.668 4.768C146.111 4.768 146.5 4.84267 146.836 4.992C147.177 5.136 147.46 5.344 147.684 5.616C147.913 5.88267 148.087 6.20533 148.204 6.584C148.321 6.96267 148.38 7.38133 148.38 7.84V13H146.948V7.84C146.948 7.22667 146.807 6.752 146.524 6.416C146.247 6.07467 145.823 5.904 145.252 5.904C144.831 5.904 144.436 6.00533 144.068 6.208C143.705 6.41067 143.369 6.68533 143.06 7.032V13H141.628V4.896H142.484C142.687 4.896 142.812 4.99467 142.86 5.192L142.972 6.072ZM79.896 30.648C80.0507 30.648 80.1733 30.6933 80.264 30.784C80.3547 30.8747 80.4 30.992 80.4 31.136V32H72.752V31.512C72.752 31.4107 72.7733 31.3067 72.816 31.2C72.8587 31.0933 72.9253 30.9947 73.016 30.904L76.688 27.216C76.992 26.9067 77.2693 26.6107 77.52 26.328C77.7707 26.04 77.984 25.752 78.16 25.464C78.336 25.176 78.472 24.8853 78.568 24.592C78.664 24.2933 78.712 23.976 78.712 23.64C78.712 23.304 78.6587 23.0107 78.552 22.76C78.4453 22.504 78.2987 22.2933 78.112 22.128C77.9307 21.9627 77.7147 21.84 77.464 21.76C77.2133 21.6747 76.944 21.632 76.656 21.632C76.3627 21.632 76.0933 21.6747 75.848 21.76C75.6027 21.8453 75.384 21.9653 75.192 22.12C75.0053 22.2693 74.848 22.448 74.72 22.656C74.592 22.864 74.5013 23.0933 74.448 23.344C74.384 23.5307 74.296 23.656 74.184 23.72C74.0773 23.7787 73.9253 23.7947 73.728 23.768L72.984 23.64C73.0587 23.1173 73.2027 22.656 73.416 22.256C73.6347 21.8507 73.9067 21.512 74.232 21.24C74.5627 20.968 74.9387 20.7627 75.36 20.624C75.7813 20.48 76.2373 20.408 76.728 20.408C77.2133 20.408 77.6667 20.48 78.088 20.624C78.5093 20.768 78.8747 20.9787 79.184 21.256C79.4933 21.528 79.736 21.8613 79.912 22.256C80.088 22.6507 80.176 23.0987 80.176 23.6C80.176 24.0267 80.112 24.424 79.984 24.792C79.856 25.1547 79.6827 25.5013 79.464 25.832C79.2453 26.1627 78.992 26.4853 78.704 26.8C78.4213 27.1147 78.12 27.432 77.8 27.752L74.776 30.84C74.9893 30.7813 75.2053 30.736 75.424 30.704C75.6427 30.6667 75.8533 30.648 76.056 30.648H79.896ZM90.0813 26.272C90.0813 27.2747 89.9719 28.144 89.7533 28.88C89.5399 29.6107 89.2466 30.216 88.8733 30.696C88.4999 31.176 88.0573 31.5333 87.5453 31.768C87.0386 32.0027 86.4946 32.12 85.9133 32.12C85.3266 32.12 84.7799 32.0027 84.2733 31.768C83.7719 31.5333 83.3346 31.176 82.9613 30.696C82.5879 30.216 82.2946 29.6107 82.0813 28.88C81.8679 28.144 81.7613 27.2747 81.7613 26.272C81.7613 25.2693 81.8679 24.4 82.0813 23.664C82.2946 22.928 82.5879 22.32 82.9613 21.84C83.3346 21.3547 83.7719 20.9947 84.2733 20.76C84.7799 20.5253 85.3266 20.408 85.9133 20.408C86.4946 20.408 87.0386 20.5253 87.5453 20.76C88.0573 20.9947 88.4999 21.3547 88.8733 21.84C89.2466 22.32 89.5399 22.928 89.7533 23.664C89.9719 24.4 90.0813 25.2693 90.0813 26.272ZM88.6013 26.272C88.6013 25.3973 88.5266 24.664 88.3773 24.072C88.2333 23.4747 88.0359 22.9947 87.7853 22.632C87.5399 22.2693 87.2546 22.0107 86.9293 21.856C86.6039 21.696 86.2653 21.616 85.9133 21.616C85.5613 21.616 85.2226 21.696 84.8973 21.856C84.5719 22.0107 84.2866 22.2693 84.0413 22.632C83.7959 22.9947 83.5986 23.4747 83.4493 24.072C83.3053 24.664 83.2333 25.3973 83.2333 26.272C83.2333 27.1467 83.3053 27.88 83.4493 28.472C83.5986 29.064 83.7959 29.5413 84.0413 29.904C84.2866 30.2667 84.5719 30.528 84.8973 30.688C85.2226 30.8427 85.5613 30.92 85.9133 30.92C86.2653 30.92 86.6039 30.8427 86.9293 30.688C87.2546 30.528 87.5399 30.2667 87.7853 29.904C88.0359 29.5413 88.2333 29.064 88.3773 28.472C88.5266 27.88 88.6013 27.1467 88.6013 26.272ZM98.4585 30.648C98.6132 30.648 98.7358 30.6933 98.8265 30.784C98.9172 30.8747 98.9625 30.992 98.9625 31.136V32H91.3145V31.512C91.3145 31.4107 91.3358 31.3067 91.3785 31.2C91.4212 31.0933 91.4878 30.9947 91.5785 30.904L95.2505 27.216C95.5545 26.9067 95.8318 26.6107 96.0825 26.328C96.3332 26.04 96.5465 25.752 96.7225 25.464C96.8985 25.176 97.0345 24.8853 97.1305 24.592C97.2265 24.2933 97.2745 23.976 97.2745 23.64C97.2745 23.304 97.2212 23.0107 97.1145 22.76C97.0078 22.504 96.8612 22.2933 96.6745 22.128C96.4932 21.9627 96.2772 21.84 96.0265 21.76C95.7758 21.6747 95.5065 21.632 95.2185 21.632C94.9252 21.632 94.6558 21.6747 94.4105 21.76C94.1652 21.8453 93.9465 21.9653 93.7545 22.12C93.5678 22.2693 93.4105 22.448 93.2825 22.656C93.1545 22.864 93.0638 23.0933 93.0105 23.344C92.9465 23.5307 92.8585 23.656 92.7465 23.72C92.6398 23.7787 92.4878 23.7947 92.2905 23.768L91.5465 23.64C91.6212 23.1173 91.7652 22.656 91.9785 22.256C92.1972 21.8507 92.4692 21.512 92.7945 21.24C93.1252 20.968 93.5012 20.7627 93.9225 20.624C94.3438 20.48 94.7998 20.408 95.2905 20.408C95.7758 20.408 96.2292 20.48 96.6505 20.624C97.0718 20.768 97.4372 20.9787 97.7465 21.256C98.0558 21.528 98.2985 21.8613 98.4745 22.256C98.6505 22.6507 98.7385 23.0987 98.7385 23.6C98.7385 24.0267 98.6745 24.424 98.5465 24.792C98.4185 25.1547 98.2452 25.5013 98.0265 25.832C97.8078 26.1627 97.5545 26.4853 97.2665 26.8C96.9838 27.1147 96.6825 27.432 96.3625 27.752L93.3385 30.84C93.5518 30.7813 93.7678 30.736 93.9865 30.704C94.2052 30.6667 94.4158 30.648 94.6185 30.648H98.4585ZM100.884 23.64C100.958 23.1173 101.102 22.656 101.316 22.256C101.529 21.8507 101.798 21.512 102.124 21.24C102.454 20.968 102.83 20.7627 103.252 20.624C103.678 20.48 104.137 20.408 104.628 20.408C105.113 20.408 105.561 20.4773 105.972 20.616C106.382 20.7547 106.734 20.952 107.028 21.208C107.326 21.464 107.558 21.7733 107.724 22.136C107.889 22.4987 107.972 22.9013 107.972 23.344C107.972 23.7067 107.924 24.032 107.828 24.32C107.737 24.6027 107.604 24.8507 107.428 25.064C107.257 25.2773 107.049 25.4587 106.804 25.608C106.558 25.7573 106.284 25.88 105.98 25.976C106.726 26.168 107.286 26.4987 107.66 26.968C108.038 27.432 108.228 28.0133 108.228 28.712C108.228 29.24 108.126 29.7147 107.924 30.136C107.726 30.5573 107.454 30.9173 107.108 31.216C106.761 31.5093 106.356 31.736 105.892 31.896C105.433 32.0507 104.94 32.128 104.412 32.128C103.804 32.128 103.284 32.0533 102.852 31.904C102.42 31.7493 102.054 31.5387 101.756 31.272C101.457 31.0053 101.212 30.6907 101.02 30.328C100.828 29.96 100.665 29.5627 100.532 29.136L101.148 28.88C101.308 28.8107 101.462 28.792 101.612 28.824C101.766 28.856 101.878 28.944 101.948 29.088C102.017 29.2373 102.102 29.416 102.204 29.624C102.31 29.832 102.454 30.032 102.636 30.224C102.817 30.416 103.046 30.5787 103.324 30.712C103.606 30.8453 103.964 30.912 104.396 30.912C104.796 30.912 105.145 30.848 105.444 30.72C105.748 30.5867 105.998 30.416 106.196 30.208C106.398 30 106.55 29.768 106.652 29.512C106.753 29.256 106.804 29.0027 106.804 28.752C106.804 28.4427 106.764 28.16 106.684 27.904C106.604 27.648 106.454 27.4267 106.236 27.24C106.017 27.0533 105.716 26.9067 105.332 26.8C104.953 26.6933 104.465 26.64 103.868 26.64V25.608C104.358 25.6027 104.774 25.5493 105.116 25.448C105.462 25.3467 105.742 25.208 105.956 25.032C106.174 24.856 106.332 24.6453 106.428 24.4C106.529 24.1547 106.58 23.8827 106.58 23.584C106.58 23.2533 106.526 22.9653 106.42 22.72C106.318 22.4747 106.177 22.272 105.996 22.112C105.814 21.952 105.598 21.832 105.348 21.752C105.102 21.672 104.836 21.632 104.548 21.632C104.26 21.632 103.99 21.6747 103.74 21.76C103.494 21.8453 103.276 21.9653 103.084 22.12C102.897 22.2693 102.74 22.448 102.612 22.656C102.484 22.864 102.393 23.0933 102.34 23.344C102.27 23.5307 102.182 23.656 102.076 23.72C101.974 23.7787 101.825 23.7947 101.628 23.768L100.884 23.64Z" fill="#1E1E1E"/>
</svg>
