<!DOCTYPE svg PUBLIC "-//W3C//DTD SVG 1.1//EN" "http://www.w3.org/Graphics/SVG/1.1/DTD/svg11.dtd">
<!-- Uploaded to: SVG Repo, www.svgrepo.com, Transformed by: SVG Repo Mixer Tools -->
<svg fill="#fafafa" height="800px" width="800px" version="1.1" id="Layer_1" xmlns="http://www.w3.org/2000/svg" xmlns:xlink="http://www.w3.org/1999/xlink" viewBox="0 0 512 512" xml:space="preserve" stroke="#fafafa">
<g id="SVGRepo_bgCarrier" stroke-width="0"/>
<g id="SVGRepo_iconCarrier"> <g> <g> <g> <path d="M426.667,170.667c9.412,0,17.067-7.654,17.067-17.067c0-9.412-7.654-17.067-17.067-17.067S409.6,144.188,409.6,153.6 C409.6,163.012,417.254,170.667,426.667,170.667z"/> <path d="M324.267,238.933c-9.412,0-17.067,7.654-17.067,17.067s7.654,17.067,17.067,17.067c9.412,0,17.067-7.654,17.067-17.067 S333.679,238.933,324.267,238.933z"/> <path d="M196.267,179.2c-9.412,0-17.067,7.654-17.067,17.067s7.654,17.067,17.067,17.067c9.412,0,17.067-7.654,17.067-17.067 S205.679,179.2,196.267,179.2z"/> <path d="M85.333,281.6c-9.412,0-17.067,7.654-17.067,17.067c0,9.412,7.654,17.067,17.067,17.067 c9.412,0,17.067-7.654,17.067-17.067C102.4,289.254,94.746,281.6,85.333,281.6z"/> <path d="M503.467,34.133H264.533v-25.6C264.533,3.823,260.719,0,256,0s-8.533,3.823-8.533,8.533v25.6H8.533 C3.814,34.133,0,37.956,0,42.667V384c0,4.71,3.814,8.533,8.533,8.533h226.867l-104.9,104.9c-3.337,3.337-3.337,8.73,0,12.066 c1.664,1.664,3.849,2.5,6.033,2.5c2.185,0,4.369-0.836,6.033-2.5l104.9-104.9V486.4c0,4.71,3.814,8.533,8.533,8.533 s8.533-3.823,8.533-8.533v-81.801l104.9,104.9c1.664,1.664,3.849,2.5,6.033,2.5c2.185,0,4.369-0.836,6.033-2.5 c3.337-3.337,3.337-8.73,0-12.066l-104.9-104.9h226.867c4.719,0,8.533-3.823,8.533-8.533V42.667 C512,37.956,508.186,34.133,503.467,34.133z M36.634,134.033c-3.337-3.337-3.337-8.73,0-12.066l25.591-25.591l0.017-0.017 l25.591-25.591c3.337-3.336,8.73-3.336,12.066,0l25.591,25.591l0.017,0.017l25.591,25.591c3.337,3.337,3.337,8.73,0,12.066 c-1.664,1.664-3.849,2.5-6.033,2.5c-2.185,0-4.369-0.836-6.033-2.5L128,122.999v39.134c0,4.71-3.814,8.533-8.533,8.533 s-8.533-3.823-8.533-8.533v-56.201L93.867,88.866L76.8,105.933v56.201c0,4.71-3.814,8.533-8.533,8.533s-8.533-3.823-8.533-8.533 v-39.134L48.7,134.033C45.363,137.37,39.97,137.37,36.634,134.033z M324.267,290.133c-18.825,0-34.133-15.309-34.133-34.133 c0-0.973,0.205-1.886,0.29-2.833l-68.642-34.458c-6.255,7.108-15.317,11.691-25.515,11.691c-8.03,0-15.326-2.901-21.154-7.561 l-60.425,58.701c2.961,5.052,4.779,10.854,4.779,17.126c0,18.825-15.309,34.133-34.133,34.133 c-18.825,0-34.133-15.309-34.133-34.133c0-18.825,15.309-34.133,34.133-34.133c6.349,0,12.228,1.86,17.323,4.89l62.046-60.271 c-1.638-3.977-2.569-8.32-2.569-12.885c0-18.825,15.309-34.133,34.133-34.133s34.133,15.309,34.133,34.133 c0,2.5-0.307,4.924-0.819,7.27l66.423,33.348c6.144-9.054,16.521-15.019,28.262-15.019c6.255,0,12.049,1.809,17.092,4.762 l55.654-56.448c-2.765-4.932-4.48-10.53-4.48-16.58c0-18.825,15.309-34.133,34.133-34.133S460.8,134.775,460.8,153.6 s-15.309,34.133-34.133,34.133c-6.571,0-12.663-1.954-17.877-5.188l-55.296,56.09c3.046,5.103,4.907,11,4.907,17.365 C358.4,274.825,343.091,290.133,324.267,290.133z M469.333,358.4h-68.267c-4.719,0-8.533-3.823-8.533-8.533 s3.814-8.533,8.533-8.533h68.267c4.719,0,8.533,3.823,8.533,8.533S474.052,358.4,469.333,358.4z M469.333,324.267H435.2 c-4.719,0-8.533-3.823-8.533-8.533c0-4.71,3.814-8.533,8.533-8.533h34.133c4.719,0,8.533,3.823,8.533,8.533 C477.867,320.444,474.052,324.267,469.333,324.267z"/> </g> </g> </g> </g>
</svg>